PathFileType	4	(X/Y/Z)	C:/Users/beibeiliu/ov580/test_trc/capture2\sequence.18_training_dense_right.trc
DataRate	CameraRate	NumFrames	NumMarkers	Units	OrigDataRate	OrigDataStartFrame	OrigNumFrames
120	120	10	19	mm	120	299	398
Frame#	Time	ThumbCMC			ThumbMCP			ThumbIP			ThumbTip			IndexMCP			IndexPIP			IndexTip			MiddleMCP			MiddlePIP			MiddleTip			RingMCP			RingPIP			RingTip			PinkyMCP			PinkyPIP			PinkyTip			BackHand1			BackHand2			BackHand3	
		X0	Y0	Z0	X1	Y1	Z1	X2	Y2	Z2	X3	Y3	Z3	X4	Y4	Z4	X5	Y5	Z5	X6	Y6	Z6	X7	Y7	Z7	X8	Y8	Z8	X9	Y9	Z9	X10	Y10	Z10	X11	Y11	Z11	X12	Y12	Z12	X13	Y13	Z13	X14	Y14	Z14	X15	Y15	Z15	X16	Y16	Z16	X17	Y17	Z17	X18	Y18	Z18	
298	2.48333	171.745	83.3124	48.8871	171.711	98.7432	20.3145	180.918	108.836	-3.51607	199.661	94.8187	-21.1617	208.804	109.97	-12.5823	185.583	105.233	-36.6758	168.821	82.9299	-21.2244	215.415	90.8363	-21.8207	186.804	80.2771	-35.306	174.923	67.6138	-3.56243	214.297	70.9138	-23.7868	188.7	59.5015	-27.3249	183.416	55.915	9.08502	217.679	50.4861	-21.4068	190.084	47.0192	-19.5877	184.041	46.2856	11.0224	232.543	58.8058	29.0546	217.995	45.854	58.9781	210.007	77.8643	49.704	
299	2.49167	161.081	77.364	46.0755	154.161	96.8979	17.1114	158.072	105.852	-4.30402	182.961	96.9503	-23.7708	187.027	115.981	-12.2506	172.093	106.348	-38.1146	158.331	77.2381	-24.8229	198.687	98.7516	-25.962	179.524	79.5196	-37.8882	168.969	62.2953	-7.54766	204.979	80.0883	-26.0654	181.804	60.5151	-27.1073	179.327	55.5485	6.13583	215.918	62.7128	-18.4177	187.259	48.8004	-18.2945	183.809	47.5186	13.978	224.048	74.3274	32.0714	218.131	57.2828	54.5126	195.115	87.0387	50.1516	
300	2.5	154.219	72.5581	46.7468	139.58	88.3884	20.0094	142.162	105.48	-4.82834	163.004	102.684	-21.4999	172.612	118.105	-13.3951	160.115	104.255	-37.6314	149.851	73.8655	-22.3225	186.231	103.885	-22.827	169.005	83.24	-37.1819	167.077	60.314	-5.58017	199.143	86.6493	-23.5206	179.095	62.9396	-28.8993	173.741	56.7843	2.93212	208.852	70.8001	-21.9799	186.575	48.893	-17.7031	181.228	47.3801	10.9062	214.352	86.615	30.6601	210.681	67.4327	56.1294	184.012	90.3904	51.0951	
301	2.50833	143.117	69.4966	49.4334	133.524	81.9685	21.68	125.325	98.4997	0.958482	143.337	108.272	-21.4701	161.014	117.198	-10.7317	150.486	100.167	-34.6994	145.759	70.634	-16.5194	177.501	104.483	-22.9102	162.438	79.5375	-34.4422	162.021	60.3494	-1.41762	188.743	89.9542	-22.8289	173.906	66.5559	-27.728	169.133	59.2395	6.80134	200.33	78.7483	-18.498	186.346	55.202	-19.5363	179.529	49.3262	16.0953	206.888	88.2698	34.0056	205.991	68.9819	60.7361	178.937	90.7364	49.6033	
302	2.51667	142.339	66.1169	48.9918	129.308	77.2773	24.3117	119.628	94.7918	4.88886	125.103	106.893	-14.1005	149.11	115.545	-5.31384	143.085	95.7331	-30.3753	140.428	68.776	-9.0437	167.253	106.374	-14.8771	157.14	79.3819	-31.0157	156.876	59.8649	0.75316	183.341	93.4587	-21.7127	170.473	65.9679	-24.5928	168.899	58.0056	8.37133	195.133	83.4049	-16.591	181.388	56.5254	-17.3536	177.538	51.4102	14.0453	197.144	94.1559	36.0848	198.789	70.3415	62.9651	170.414	90.8963	53.6214	
303	2.525	135.937	62.802	52.0685	123.739	75.8326	25.7847	110.921	92.8139	7.29395	109.522	105.885	-9.11261	141.511	114.61	-1.21794	130.663	95.811	-26.4605	134.711	68.3029	-9.63597	159.399	107.819	-15.1575	145.771	80.2301	-27.5255	149.951	60.7491	0.884875	175.756	98.0974	-13.9424	165.222	67.7419	-23.4723	162.985	58.7212	10.4137	189.728	86.3565	-17.3032	177.213	61.3215	-17.0998	169.151	54.429	16.0683	189.5	96.2783	37.0495	193.734	73.2928	61.9318	161.416	88.6386	57.9035	
304	2.53333	135.021	60.6146	52.7909	120.75	72.6686	28.7165	110.428	89.7436	11.3456	106.277	103.766	-5.08233	130.094	114.641	-0.602409	125.111	97.6735	-23.2633	133.602	67.7639	-4.42529	149.732	109.701	-10.4707	143.199	83.0943	-26.2587	144.455	59.8458	5.55142	165.663	98.8803	-14.3419	157.279	68.6397	-20.1016	159.178	58.2019	9.09783	184.867	89.5173	-14.7076	172.913	64.532	-16.613	171.749	52.8177	14.0186	185.714	97.4409	39.7099	191.221	76.0235	62.5164	156.841	88.5117	62.8472	
305	2.54167	131.896	58.2954	54.597	116.889	67.1342	31.3378	106.676	88.9294	12.1813	103.133	104.603	-4.99055	127.665	113.117	3.86579	119.958	97.5551	-21.5883	127.217	66.69	-6.48708	146.009	109.941	-5.89301	137.135	82.1362	-23.7607	141.112	59.9677	2.68726	161.99	99.2859	-13.848	153.817	73.5963	-21.4757	154.159	58.246	9.85968	183.313	90.9262	-10.4562	169.089	61.6189	-13.0672	164.577	55.7242	14.1664	183.317	95.5494	42.9812	190.986	76.2187	63.2253	153.17	86.0425	62.913	
306	2.55	126.612	58.7642	54.8005	110.943	67.0091	30.1397	98.277	85.1469	11.4643	98.1202	98.6295	-5.41544	120.08	112.874	0.877781	118.727	95.1771	-22.2257	126.015	65.1583	-7.5947	142.628	108.626	-8.46136	132.805	80.2873	-24.3576	139.637	58.3025	1.45398	159.441	98.802	-11.5244	150.537	71.3645	-20.1307	154.379	55.9728	11.3569	174.579	90.531	-10.8466	166.788	63.9302	-15.2116	162.522	52.6267	19.2833	178.076	94.9708	43.7483	187.747	72.448	64.1039	153.108	87.3221	59.528	
307	2.55833	123.941	58.1146	52.9214	109.93	65.4813	27.889	96.9505	79.6711	10.1338	92.2863	97.9685	-12.4316	121.276	109.046	-4.27161	110.863	87.5632	-24.6073	117.594	61.8554	-9.24584	136.634	105.133	-12.551	130.109	75.9058	-26.5588	134.402	54.3728	0.0404005	157.601	94.7379	-16.6431	145.837	67.1614	-20.5607	148.698	54.4866	11.9311	174.306	85.3556	-14.0873	161.496	57.9672	-12.5175	157.083	52.7702	18.3823	176.172	95.1359	37.4865	178.467	75.8236	60.5675	147.54	87.7991	58.8746	
